/* XPM */
static char *Self_wmb_asm_frontendFrmMain_XPM[]={
/* Self_wmb_asm_frontendFrmMain */
"32 32 8 1",
"      c None",
"0     c #F3F3F3",
"1     c #29BBFF",
"2     c #000000",
"3     c #E9E9E9",
"4     c #DADADA",
"5     c #FF0000",
"6     c #F4F4F4",
"                                ",
"  0000000                       ",
"  01121100                      ",
"  012211030                     ",
"  0122110000                    ",
"  0211222220                    ",
"  0111111110                    ",
"  0111111110                    ",
"  0444444440                    ",
"  0444444440                    ",
"  0444444440                    ",
"  0444444440                    ",
"  0444444440                    ",
"  0000000000                    ",
"                                ",
"             2    2             ",
"              2   2             ",
"               2  2             ",
"           22   2 2             ",
"             222   2 2222222222 ",
"                22 2 2000000002 ",
"                  22 2000000002 ",
"                     2550005502 ",
"                     2505050002 ",
"                     2505055662 ",
"                     2565666502 ",
"                     2550655662 ",
"                     2066666002 ",
"                      206666662 ",
"                       26666002 ",
"                        2222222 ",
"                                "};

